<svg width="20" height="18" viewBox="0 0 20 18" fill="none" xmlns="http://www.w3.org/2000/svg">
  <path
    d="M19.0236 9.02612V8.64522C19.0236 7.94354 18.6604 7.32545 18.1123 6.96803V2.81302C18.1123 1.71982 17.2229 0.830444 16.1297 0.830444H3.87027C2.77707 0.830444 1.88766 1.71982 1.88766 2.81302V6.96799C1.33961 7.32541 0.976328 7.9435 0.976328 8.64518V9.02608C0.415156 9.17385 0 9.68557 0 10.2925V14.7494C0 15.4506 0.553984 16.0247 1.24723 16.0573V16.5848C1.24723 16.9077 1.50906 17.1696 1.83203 17.1696C2.155 17.1696 2.41684 16.9077 2.41684 16.5848V16.0589H17.5831V16.5848C17.5831 16.9077 17.845 17.1696 18.1679 17.1696C18.4909 17.1696 18.7527 16.9077 18.7527 16.5848V16.0573C19.446 16.0246 20 15.4505 20 14.7494V10.2925C20 9.68553 19.5848 9.17385 19.0236 9.02612ZM3.0573 2.81302C3.0573 2.36474 3.42199 2.00005 3.87027 2.00005H16.1297C16.578 2.00005 16.9427 2.36474 16.9427 2.81302V6.64377H16.1629V5.61299C16.1629 4.8915 15.576 4.30451 14.8545 4.30451H11.7077C10.9862 4.30451 10.3992 4.8915 10.3992 5.61299V6.64377H9.60082V5.61299C9.60082 4.8915 9.01383 4.30451 8.29234 4.30451H5.14555C4.42402 4.30451 3.83707 4.8915 3.83707 5.61299V6.64377H3.0573V2.81302ZM14.9933 5.61295V6.5049C14.9933 6.58147 14.931 6.64373 14.8545 6.64373H11.7077C11.6311 6.64373 11.5688 6.58143 11.5688 6.5049V5.61295C11.5688 5.53639 11.6311 5.47412 11.7077 5.47412H14.8545C14.931 5.47412 14.9933 5.53639 14.9933 5.61295ZM8.43117 5.61295V6.5049C8.43117 6.58147 8.36887 6.64373 8.29234 6.64373H5.14555C5.06898 6.64373 5.00672 6.58143 5.00672 6.5049V5.61295C5.00672 5.53639 5.06902 5.47412 5.14555 5.47412H8.29234C8.36887 5.47412 8.43117 5.53639 8.43117 5.61295ZM2.14598 8.64518C2.14598 8.18651 2.51914 7.81338 2.97781 7.81338H17.0222C17.4809 7.81338 17.854 8.18655 17.854 8.64518V8.98299H2.14598V8.64518ZM18.8304 14.7494C18.8304 14.8265 18.7676 14.8892 18.6905 14.8892H1.30949C1.23238 14.8892 1.16961 14.8265 1.16961 14.7494V10.2925C1.16961 10.2154 1.23234 10.1527 1.30949 10.1527H18.6905C18.7676 10.1527 18.8304 10.2154 18.8304 10.2925V14.7494H18.8304Z"
    fill="currentColor" />
</svg>
