<svg width="53" height="52" viewBox="0 0 53 52" fill="none" xmlns="http://www.w3.org/2000/svg">
<circle cx="26.8242" cy="26" r="25.5" stroke="black"/>
<path d="M34.333 15.6001H19.3108C17.716 15.6021 16.4238 16.8942 16.4219 18.489V33.5112C16.4238 35.106 17.716 36.3981 19.3108 36.4001H34.333C35.9278 36.3981 37.2199 35.106 37.2219 33.5112V18.489C37.2199 16.8942 35.9278 15.6021 34.333 15.6001ZM36.0663 33.5112C36.0663 34.4684 35.2902 35.2445 34.333 35.2445H19.3108C18.3535 35.2445 17.5774 34.4684 17.5774 33.5112V18.489C17.5774 17.5318 18.3535 16.7557 19.3108 16.7557H34.333C35.2902 16.7557 36.0663 17.5318 36.0663 18.489V33.5112Z" fill="black"/>
<path d="M26.8207 20.2227C23.6297 20.2227 21.043 22.8094 21.043 26.0004C21.043 29.1915 23.6297 31.7782 26.8207 31.7782C30.0118 31.7782 32.5985 29.1915 32.5985 26.0004C32.5951 22.8108 30.0104 20.226 26.8207 20.2227ZM26.8207 30.6227C24.2679 30.6227 22.1985 28.5533 22.1985 26.0004C22.1985 23.4475 24.2679 21.3782 26.8207 21.3782C29.3736 21.3782 31.443 23.4475 31.443 26.0004C31.4401 28.5519 29.3722 30.6198 26.8207 30.6227Z" fill="black"/>
<path d="M33.1786 17.9111C32.2214 17.9111 31.4453 18.6872 31.4453 19.6445C31.4453 20.6017 32.2214 21.3778 33.1786 21.3778C34.1359 21.3778 34.912 20.6017 34.912 19.6445C34.912 18.6872 34.1359 17.9111 33.1786 17.9111ZM33.1786 20.2222C32.8596 20.2222 32.6009 19.9635 32.6009 19.6445C32.6009 19.3254 32.8596 19.0667 33.1786 19.0667C33.4977 19.0667 33.7564 19.3254 33.7564 19.6445C33.7564 19.9635 33.4977 20.2222 33.1786 20.2222Z" fill="black"/>
</svg>
