<svg viewBox="0 0 53 52" fill="none" xmlns="http://www.w3.org/2000/svg">
  <circle cx="26.6523" cy="26" r="25.5" stroke="currentColor" />
  <path
    d="M35.4093 21.2574C35.4093 21.0731 35.2641 20.9222 35.0798 20.9167C35.063 20.9167 33.4598 20.872 32.108 19.8888C30.9629 19.0509 30.544 17.1517 30.477 16.4758V16.392C30.477 16.2077 30.3261 16.0569 30.1418 16.0569H27.0695C26.8852 16.0569 26.7344 16.2077 26.7344 16.392V18.6432C26.7344 18.8275 26.8852 18.9783 27.0695 18.9783C27.2539 18.9783 27.4047 18.8275 27.4047 18.6432V16.7272H29.829C29.963 17.7271 30.4881 19.5425 31.7059 20.4307C32.8454 21.263 34.1246 21.4976 34.7223 21.5646V23.9777C33.957 23.9275 32.0857 23.6649 30.3317 22.4025C30.2312 22.3299 30.0971 22.3187 29.9854 22.3746C29.8737 22.4304 29.8011 22.5477 29.8011 22.6706V29.6419C29.8011 31.6193 28.79 33.418 27.0919 34.4514C26.9355 34.5463 26.8852 34.753 26.9802 34.9094C27.0416 35.0156 27.1533 35.0714 27.265 35.0714C27.3265 35.0714 27.3823 35.0547 27.4382 35.0211C28.3431 34.4681 29.1028 33.6917 29.6335 32.77C30.1809 31.8204 30.4658 30.7367 30.4658 29.6419V23.3018C32.622 24.6257 34.7893 24.6648 35.0518 24.6648C35.1412 24.6648 35.225 24.6313 35.2864 24.5643C35.3479 24.5028 35.387 24.4134 35.387 24.3297V21.3356C35.4093 21.3133 35.4093 21.2853 35.4093 21.2574Z"
    fill="currentColor" />
  <path fill-rule="evenodd" clip-rule="evenodd"
    d="M26.543 16.3922C26.543 16.1002 26.7811 15.8621 27.0731 15.8621H30.1454C30.4374 15.8621 30.6755 16.1002 30.6755 16.3922V16.4662C30.7088 16.7907 30.8267 17.4113 31.0737 18.0516C31.3244 18.7012 31.6982 19.3448 32.2266 19.7315C32.8748 20.2029 33.5868 20.4514 34.1426 20.5817C34.6756 20.7067 35.0558 20.7208 35.082 20.7218C35.0831 20.7218 35.0836 20.7218 35.0834 20.7218H35.0893C35.3797 20.7306 35.6079 20.9686 35.6079 21.2576C35.6079 21.2585 35.608 21.2598 35.608 21.2614C35.6083 21.2784 35.6094 21.3307 35.5856 21.3881V24.3298C35.5856 24.4678 35.5244 24.6043 35.4309 24.6993C35.3298 24.8078 35.1936 24.86 35.0554 24.86C34.7908 24.86 32.7634 24.8232 30.6644 23.6428V29.6421C30.6644 30.7705 30.3708 31.8878 29.806 32.8676C29.2589 33.8177 28.476 34.6178 27.5435 35.1877L27.5421 35.1885C27.4594 35.2382 27.3692 35.2666 27.2686 35.2666C27.0943 35.2666 26.9156 35.1795 26.816 35.0091C26.6668 34.7611 26.7461 34.4357 26.9941 34.285C28.6343 33.2868 29.6096 31.5512 29.6096 29.6421V22.6708C29.6096 22.4733 29.7247 22.2889 29.9018 22.2003C30.0784 22.112 30.2899 22.1295 30.4492 22.2444C32.0196 23.3747 33.6889 23.6848 34.5309 23.7664V21.7367C33.8657 21.6439 32.672 21.3754 31.5945 20.5884C30.9471 20.1162 30.4935 19.4058 30.1858 18.6988C29.9098 18.0646 29.7455 17.4201 29.6645 16.9224H27.6033V18.6433C27.6033 18.9354 27.3652 19.1735 27.0731 19.1735C26.7811 19.1735 26.543 18.9354 26.543 18.6433V16.3922ZM27.0731 16.2521C26.9965 16.2521 26.933 16.3156 26.933 16.3922V18.6433C26.933 18.72 26.9965 18.7835 27.0731 18.7835C27.1498 18.7835 27.2133 18.72 27.2133 18.6433V16.5324H30.0032L30.0258 16.7015C30.0908 17.1861 30.2514 17.8721 30.5434 18.5432C30.8362 19.2159 31.2541 19.8574 31.8244 20.2733C32.9245 21.0768 34.1648 21.3057 34.7476 21.371L34.9209 21.3904V24.1862L34.7131 24.1725C33.929 24.121 32.0167 23.8531 30.2214 22.561C30.1796 22.5308 30.1229 22.5258 30.0762 22.5492C30.0298 22.5724 29.9996 22.6226 29.9996 22.6708V29.6421C29.9996 31.6877 28.9529 33.5495 27.1968 34.6181C27.1327 34.6571 27.1112 34.7438 27.1504 34.8084L27.1525 34.8119C27.1761 34.8525 27.2202 34.8766 27.2686 34.8766C27.2908 34.8766 27.3122 34.8716 27.3409 34.8545C28.2178 34.3184 28.954 33.5658 29.4681 32.6729C29.9981 31.7534 30.2744 30.7033 30.2744 29.6421V22.9535L30.5714 23.1358C32.6827 24.4321 34.8075 24.47 35.0554 24.47C35.0947 24.47 35.1248 24.4561 35.1463 24.4327L35.152 24.4264C35.1798 24.3987 35.1956 24.358 35.1956 24.3298V21.255L35.2161 21.2344C35.2055 21.1658 35.1479 21.1139 35.0775 21.1117C34.9641 21.1087 33.3612 21.0389 31.9969 20.0467C31.3804 19.5956 30.9717 18.8703 30.7099 18.192C30.4469 17.5104 30.3216 16.8493 30.2865 16.4953L30.2855 16.4857V16.3922C30.2855 16.3156 30.222 16.2521 30.1454 16.2521H27.0731ZM35.2178 21.2686C35.2178 21.2687 35.2178 21.2687 35.2178 21.2686V21.2686Z"
    fill="currentColor" />
  <path
    d="M27.1672 34.42C26.0835 34.8896 26.0833 34.9272 24.4866 35.0998C21.3864 35.0998 18.5648 32.7476 18.5648 29.6474C18.5648 26.5472 21.0897 24.0224 24.1899 24.0224H24.8267V26.4244H24.1899C22.4136 26.4244 20.9668 27.8711 20.9668 29.6474C20.9668 31.4238 22.4136 32.8705 24.1899 32.8705C25.9662 32.8705 27.413 31.4238 27.413 29.6474V18.0644C27.413 17.8801 27.2621 17.7292 27.0778 17.7292C26.8935 17.7292 26.7427 17.8801 26.7427 18.0644V29.6419C26.7427 31.0495 25.5975 32.1946 24.1899 32.1946C22.7822 32.1946 21.6371 31.0495 21.6371 29.6419C21.6371 28.2342 22.7822 27.0891 24.1899 27.0891H25.1618C25.3462 27.0891 25.497 26.9383 25.497 26.7539V23.6817C25.497 23.4973 25.3462 23.3465 25.1618 23.3465H24.1899C20.7154 23.3465 17.8945 26.173 17.8945 29.6419C17.8945 33.1163 21.0177 35.7645 24.4866 35.7645C25.4616 35.7645 26.6532 35.5332 27.413 35.0345C27.5682 34.9326 27.6699 34.7719 27.6029 34.5988C27.5303 34.4368 27.3348 34.3474 27.1672 34.42Z"
    fill="currentColor" />
  <path fill-rule="evenodd" clip-rule="evenodd"
    d="M26.5473 18.0646C26.5473 17.7725 26.7855 17.5344 27.0775 17.5344C27.3695 17.5344 27.6077 17.7725 27.6077 18.0646V29.6476C27.6077 31.5316 26.0736 33.0657 24.1896 33.0657C22.3055 33.0657 20.7715 31.5316 20.7715 29.6476C20.7715 27.7636 22.3055 26.2295 24.1896 26.2295H24.6314V24.2176H24.1896C21.1971 24.2176 18.7595 26.6551 18.7595 29.6476C18.7595 32.6164 21.4661 34.8997 24.4758 34.905C25.2702 34.819 25.6519 34.7678 25.9685 34.6831C26.2438 34.6094 26.4712 34.5104 26.8854 34.3299C26.9488 34.3024 27.0164 34.2729 27.0893 34.2413C27.3652 34.1217 27.669 34.2704 27.7805 34.5192L27.7847 34.5285C27.9007 34.8282 27.7079 35.0741 27.5197 35.1977C26.7157 35.7254 25.481 35.9597 24.4863 35.9597C20.9289 35.9597 17.6992 33.2425 17.6992 29.642C17.6992 26.0656 20.6073 23.1517 24.1896 23.1517H25.1615C25.4536 23.1517 25.6917 23.3898 25.6917 23.6818V26.7541C25.6917 27.0461 25.4536 27.2843 25.1615 27.2843H24.1896C22.8896 27.2843 21.8318 28.3421 21.8318 29.642C21.8318 30.942 22.8896 31.9998 24.1896 31.9998C25.4895 31.9998 26.5473 30.942 26.5473 29.642V18.0646ZM27.0775 17.9244C27.0009 17.9244 26.9373 17.9879 26.9373 18.0646V29.642C26.9373 31.1574 25.7049 32.3898 24.1896 32.3898C22.6742 32.3898 21.4418 31.1574 21.4418 29.642C21.4418 28.1267 22.6742 26.8943 24.1896 26.8943H25.1615C25.2382 26.8943 25.3017 26.8307 25.3017 26.7541V23.6818C25.3017 23.6052 25.2382 23.5417 25.1615 23.5417H24.1896C20.8229 23.5417 18.0892 26.2807 18.0892 29.642C18.0892 32.9905 21.1059 35.5697 24.4863 35.5697C25.4415 35.5697 26.5901 35.3413 27.3057 34.8716C27.3623 34.8345 27.3985 34.7931 27.4158 34.7579C27.43 34.7288 27.4325 34.7031 27.4225 34.6741C27.3873 34.6022 27.3024 34.574 27.2444 34.5991C27.1727 34.6302 27.1054 34.6595 27.0419 34.6873C26.6318 34.866 26.3748 34.9781 26.0693 35.0598C25.7171 35.1541 25.3024 35.2079 24.5072 35.2939L24.4968 35.295H24.4863C21.2998 35.295 18.3695 32.8757 18.3695 29.6476C18.3695 26.4397 20.9817 23.8276 24.1896 23.8276H25.0214V26.6195H24.1896C22.5209 26.6195 21.1615 27.979 21.1615 29.6476C21.1615 31.3162 22.5209 32.6757 24.1896 32.6757C25.8582 32.6757 27.2177 31.3162 27.2177 29.6476V18.0646C27.2177 17.9879 27.1541 17.9244 27.0775 17.9244Z"
    fill="currentColor" />
</svg>
