<svg width="52" height="52" viewBox="0 0 52 52" fill="none" xmlns="http://www.w3.org/2000/svg">
<circle cx="26" cy="26" r="25.5" stroke="black"/>
<g clip-path="url(#clip0_1_12950)">
<path d="M38.5112 34.8844H34.9361C34.3862 34.8857 33.8664 34.6326 33.5282 34.199L30.0424 29.7525C29.886 29.5527 29.6202 29.4737 29.38 29.5561C29.1399 29.6384 28.9782 29.8636 28.9774 30.1174V31.905C28.9774 33.5511 27.3759 34.8844 25.4022 34.8844C24.6306 34.8914 23.8732 34.6769 23.2199 34.2662C18.2145 31.0633 14.8181 27.019 11.8687 20.7476C11.6089 20.1942 11.6499 19.5464 11.9774 19.0301C12.3049 18.5138 12.8736 18.2009 13.485 18.2002H17.0602C17.7755 18.1985 18.4229 18.6233 18.7062 19.2801L19.1083 20.2187C19.716 21.6285 20.5319 22.9393 21.5292 24.1068C21.5617 24.1417 21.6079 24.1609 21.6557 24.1589C21.6996 24.1631 21.7434 24.1484 21.776 24.1185C21.8087 24.0889 21.8272 24.0465 21.827 24.0025V21.6711C21.0092 21.3789 20.5199 20.5412 20.6668 19.6854C20.8136 18.8295 21.5545 18.2031 22.423 18.2002H27.1898C28.177 18.2002 28.9774 19.0006 28.9774 19.9878V24.1589C28.9778 24.4249 29.1546 24.6584 29.4105 24.7311C29.6665 24.8037 29.9395 24.6979 30.0798 24.4716L33.409 19.0567C33.7317 18.5223 34.3118 18.1969 34.9361 18.2002H38.5112C39.1717 18.2004 39.7782 18.5651 40.0885 19.1481C40.3987 19.7312 40.3621 20.438 39.9933 20.9859L36.2394 26.1922C36.0878 26.401 36.0878 26.6836 36.2394 26.8924L39.9636 32.054C40.3547 32.5987 40.4081 33.3164 40.102 33.9129C39.7958 34.5095 39.1816 34.8844 38.5112 34.8844ZM29.5733 28.3298C30.1232 28.3287 30.6427 28.5816 30.981 29.0152L34.4667 33.4617C34.5793 33.6068 34.7523 33.6921 34.9361 33.6925H38.5112C38.7355 33.6934 38.9413 33.568 39.0434 33.3683C39.1458 33.1684 39.127 32.9284 38.9952 32.7466L35.2712 27.585C34.82 26.9603 34.82 26.1169 35.2712 25.4922L39.0177 20.3007C39.0766 20.2069 39.1076 20.0984 39.1069 19.9878C39.1069 19.6587 38.8403 19.3919 38.5112 19.3919H34.9361C34.7294 19.3921 34.5378 19.4992 34.4296 19.6749L31.1001 25.0898C30.6833 25.7745 29.8616 26.0982 29.0897 25.8812C28.3179 25.6646 27.7851 24.9604 27.7857 24.1589V19.9878C27.7857 19.6587 27.5188 19.3919 27.1898 19.3919H22.423C22.0937 19.3919 21.827 19.6587 21.827 19.9878C21.827 20.3169 22.0937 20.5837 22.423 20.5837H23.0187V24.0025C23.0119 24.5678 22.6569 25.0704 22.126 25.2657C21.5953 25.4608 20.9991 25.3078 20.6277 24.8814C19.5544 23.6243 18.6754 22.2133 18.021 20.6955L17.6112 19.7569C17.518 19.5352 17.3007 19.3912 17.0602 19.3919H13.485C13.2817 19.393 13.0929 19.4977 12.9842 19.6697C12.8756 19.8416 12.8623 20.057 12.9487 20.2411C15.8312 26.3709 18.9966 30.1473 23.8677 33.2681C24.3292 33.5507 24.861 33.698 25.4022 33.6925C26.713 33.6925 27.7857 32.8882 27.7857 31.905V30.1174C27.7857 29.1302 28.5859 28.3298 29.5733 28.3298Z" fill="black"/>
</g>
<defs>
<clipPath id="clip0_1_12950">
<rect width="28.6" height="28.6" fill="white" transform="translate(11.6992 11.7)"/>
</clipPath>
</defs>
</svg>
