<svg viewBox="0 0 53 52" fill="none" xmlns="http://www.w3.org/2000/svg">
  <circle cx="26.4766" cy="26" r="25.5" stroke="currentColor" />
  <g clip-path="url(#clip0_1_12943)">
    <path
      d="M35.3478 16.6213H18.9054C15.9118 16.6213 13.4766 19.0644 13.4766 22.0669V31.2324C13.4766 34.2354 15.9118 36.6779 18.9054 36.6779H35.3478C38.3413 36.6779 40.7766 34.2349 40.7766 31.2324V22.0669C40.7766 19.0644 38.3413 16.6213 35.3478 16.6213ZM39.6623 31.233C39.6623 33.6214 37.7268 35.5642 35.3478 35.5642H18.9054C16.5264 35.5642 14.5908 33.6209 14.5908 31.233V22.0669C14.5908 19.6789 16.5264 17.7356 18.9054 17.7356H35.3478C37.7268 17.7356 39.6623 19.6789 39.6623 22.0669V31.233Z"
      fill="currentColor" />
    <path
      d="M32.0616 26.4482L24.3424 21.927C24.1708 21.8267 23.9574 21.8251 23.7841 21.9242C23.6109 22.0234 23.5039 22.2078 23.5039 22.4078V31.4497C23.5039 31.6492 23.6109 31.8341 23.7836 31.9333C23.8694 31.9823 23.9652 32.0069 24.061 32.0069C24.1585 32.0069 24.2555 31.9812 24.3424 31.9305L32.0616 27.4104C32.2321 27.3107 32.3374 27.1274 32.3374 26.9296C32.3374 26.7318 32.2327 26.548 32.0616 26.4482ZM24.6182 30.4775V23.3795L30.6777 26.9291L24.6182 30.4775Z"
      fill="currentColor" />
  </g>
  <defs>
    <clipPath id="clip0_1_12943">
      <rect width="27.3" height="27.3" fill="white" transform="translate(13.4766 13)" />
    </clipPath>
  </defs>
</svg>
